<?xml version="1.0" encoding="UTF-8" standalone="no"?>
<!DOCTYPE svg PUBLIC "-//W3C//DTD SVG 1.1//EN" "http://www.w3.org/Graphics/SVG/1.1/DTD/svg11.dtd">
<!-- Generated by Microsoft Visio, SVG Export Exemplu_circuit.svg Page-1 -->
<svg xmlns="http://www.w3.org/2000/svg" xmlns:xlink="http://www.w3.org/1999/xlink" xmlns:ev="http://www.w3.org/2001/xml-events"
		xmlns:v="http://schemas.microsoft.com/visio/2003/SVGExtensions/" width="2.14931in" height="3.19401in"
		viewBox="0 0 154.75 229.969" xml:space="preserve" color-interpolation-filters="sRGB" class="st5">
	<v:documentProperties v:langID="1033" v:viewMarkup="false">
		<v:userDefs>
			<v:ud v:nameU="msvSubprocessMaster" v:prompt="" v:val="VT4(Rectangle)"/>
			<v:ud v:nameU="msvNoAutoConnect" v:val="VT0(1):26"/>
		</v:userDefs>
	</v:documentProperties>

	<style type="text/css">
	<![CDATA[
		.st1 {stroke:#385da2;stroke-linecap:butt;stroke-width:1.25}
		.st2 {fill:#708bcb;stroke:#385da2;stroke-linecap:butt;stroke-width:1.25}
		.st3 {stroke:#000000;stroke-linecap:round;stroke-linejoin:round;stroke-width:0.75}
		.st4 {stroke:#4672c4;stroke-linecap:round;stroke-linejoin:round;stroke-width:1}
		.st5 {fill:none;fill-rule:evenodd;font-size:12px;overflow:visible;stroke-linecap:square;stroke-miterlimit:3}
	]]>
	</style>

	<g v:mID="0" v:index="1" v:groupContext="foregroundPage">
		<v:userDefs>
			<v:ud v:nameU="msvThemeOrder" v:val="VT0(0):26"/>
		</v:userDefs>
		<title>Page-1</title>
		<v:pageProperties v:drawingScale="1" v:pageScale="1" v:drawingUnits="0" v:shadowOffsetX="9" v:shadowOffsetY="-9"/>
		<v:layer v:name="Electrical" v:index="0"/>
		<v:layer v:name="Connector" v:index="1"/>
		<g id="group1-1" transform="translate(-133.469,101.638) rotate(-90)" v:mID="1" v:groupContext="group" v:layerMember="0">
			<v:custProps>
				<v:cp v:nameU="Input" v:lbl="No. of Inputs" v:type="1" v:format="2;3;4;5" v:sortKey="2" v:langID="1033"
						v:val="VT4(2)"/>
				<v:cp v:nameU="Type" v:lbl="Gate Type" v:type="1" v:format="OR;AND;NOR;NAND;XOR;XNOR" v:sortKey="1" v:langID="1033"
						v:val="VT4(AND)"/>
				<v:cp v:nameU="Out" v:lbl="No. of Outputs" v:type="1" v:format="1;2;3" v:sortKey="3" v:langID="1033" v:val="VT4(1)"/>
				<v:cp v:nameU="Type" v:lbl="" v:prompt="" v:type="0" v:format="" v:sortKey="" v:invis="false" v:ask="false"
						v:langID="0" v:cal="0" v:val="VT4(NAND)"/>
			</v:custProps>
			<v:userDefs>
				<v:ud v:nameU="SubType" v:val="VT0(1):26"/>
				<v:ud v:nameU="Margin" v:val="VT0(0.0625):0"/>
				<v:ud v:nameU="LimitHeight" v:val="VT0(0):26"/>
				<v:ud v:nameU="visDescription" v:val="VT4(Represents various forms of logic gates.)"/>
				<v:ud v:nameU="visVersion" v:val="VT0(15):26"/>
				<v:ud v:nameU="SubType" v:prompt="" v:val="VT0(3):26"/>
				<v:ud v:nameU="Margin" v:prompt="" v:val="VT0(0.05468751186187):1"/>
			</v:userDefs>
			<title>Logic gate 2</title>
			<g id="shape2-2" v:mID="2" v:groupContext="shape" v:layerMember="0" transform="translate(0,-3.9375)">
				<title>Sheet.2</title>
				<path d="M0 222.09 L15.75 222.09" class="st1"/>
				<path d="M0 229.97 L15.75 229.97" class="st1"/>
				<path d="M31.5 226.03 L15.75 226.03" class="st1"/>
			</g>
			<g id="shape3-7" v:mID="3" v:groupContext="shape" v:layerMember="0" transform="translate(5.5125,0)">
				<title>Sheet.3</title>
				<v:userDefs>
					<v:ud v:nameU="X" v:val="VT0(0.03125):0"/>
					<v:ud v:nameU="X" v:prompt="" v:val="VT0(0.027343755930935):1"/>
				</v:userDefs>
				<path d="M20.48 222.09 A21.2079 12.9933 0 0 1 6.14 229.97 L0 229.97 A30.3858 18.6163 -180 0 0 0 214.22 L6.14 214.22
							 A20.9239 12.8193 0 0 1 20.48 222.09 Z" class="st2"/>
			</g>
			<g id="shape4-9" v:mID="4" v:groupContext="shape" v:layerMember="0" transform="translate(0,1.96875)">
				<title>Sheet.4</title>
			</g>
			<g id="shape5-11" v:mID="5" v:groupContext="shape" v:layerMember="0" transform="translate(21.3276,-1.97892)">
				<title>Sheet.5</title>
				<path d="M6.96 224.07 A1.17922 1.17922 -180 0 0 4.6 224.07 A1.17922 1.17922 -180 1 0 6.96 224.07 Z" class="st2"/>
			</g>
			<g id="shape6-13" v:mID="6" v:groupContext="shape" v:layerMember="0" transform="translate(5.5125,0)">
				<title>Sheet.6</title>
				<path d="M12.6 229.97 L0 229.97 L0 214.22 L12.6 214.22 A7.875 7.875 0 0 1 12.6 229.97 Z" class="st2"/>
			</g>
		</g>
		<g id="group13-15" transform="translate(-134.594,56.6375) rotate(-90)" v:mID="13" v:groupContext="group" v:layerMember="0">
			<v:userDefs>
				<v:ud v:nameU="Form" v:val="VT0(0):26"/>
				<v:ud v:nameU="visDescription" v:val="VT4(Represents an inverter.)"/>
				<v:ud v:nameU="visVersion" v:val="VT0(15):26"/>
			</v:userDefs>
			<title>Inverter</title>
			<g id="shape14-16" v:mID="14" v:groupContext="shape" v:layerMember="0"
					transform="translate(162.108,54.4969) rotate(45)">
				<title>Sheet.14</title>
			</g>
			<g id="shape15-18" v:mID="15" v:groupContext="shape" v:layerMember="0">
				<title>Sheet.15</title>
				<desc>1</desc>
				<v:textBlock v:margins="rect(1,1,1,1)"/>
				<v:textRect cx="6.75" cy="219.844" width="6.41" height="9.20349"/>
				<path d="M13.5 223.22 A1.0125 1.0125 -180 1 0 15.53 223.22 A1.0125 1.0125 -180 0 0 13.5 223.22 ZM0 216.47 L13.5 223.22
							 L0 229.97 L0 216.47 Z" class="st2"/>
			</g>
		</g>
		<g id="group16-20" transform="translate(-106.469,142.138) rotate(-90)" v:mID="16" v:groupContext="group" v:layerMember="0">
			<v:userDefs>
				<v:ud v:nameU="Form" v:val="VT0(0):26"/>
				<v:ud v:nameU="visDescription" v:val="VT4(Represents an inverter.)"/>
				<v:ud v:nameU="visVersion" v:val="VT0(15):26"/>
			</v:userDefs>
			<title>Inverter.16</title>
			<g id="shape17-21" v:mID="17" v:groupContext="shape" v:layerMember="0"
					transform="translate(162.108,54.4969) rotate(45)">
				<title>Sheet.17</title>
			</g>
			<g id="shape18-23" v:mID="18" v:groupContext="shape" v:layerMember="0">
				<title>Sheet.18</title>
				<desc>1</desc>
				<v:textBlock v:margins="rect(1,1,1,1)"/>
				<v:textRect cx="6.75" cy="219.844" width="6.41" height="9.20349"/>
				<path d="M13.5 223.22 A1.0125 1.0125 -180 1 0 15.53 223.22 A1.0125 1.0125 -180 0 0 13.5 223.22 ZM0 216.47 L13.5 223.22
							 L0 229.97 L0 216.47 Z" class="st2"/>
			</g>
		</g>
		<g id="group19-25" transform="translate(-160.469,151.138) rotate(-90)" v:mID="19" v:groupContext="group" v:layerMember="0">
			<v:custProps>
				<v:cp v:nameU="Input" v:lbl="No. of Inputs" v:type="1" v:format="2;3;4;5" v:sortKey="2" v:langID="1033"
						v:val="VT4(2)"/>
				<v:cp v:nameU="Type" v:lbl="Gate Type" v:type="1" v:format="OR;AND;NOR;NAND;XOR;XNOR" v:sortKey="1" v:langID="1033"
						v:val="VT4(AND)"/>
				<v:cp v:nameU="Out" v:lbl="No. of Outputs" v:type="1" v:format="1;2;3" v:sortKey="3" v:langID="1033" v:val="VT4(1)"/>
				<v:cp v:nameU="Type" v:lbl="" v:prompt="" v:type="0" v:format="" v:sortKey="" v:invis="false" v:ask="false"
						v:langID="0" v:cal="0" v:val="VT4(NAND)"/>
			</v:custProps>
			<v:userDefs>
				<v:ud v:nameU="SubType" v:val="VT0(1):26"/>
				<v:ud v:nameU="Margin" v:val="VT0(0.0625):0"/>
				<v:ud v:nameU="LimitHeight" v:val="VT0(0):26"/>
				<v:ud v:nameU="visDescription" v:val="VT4(Represents various forms of logic gates.)"/>
				<v:ud v:nameU="visVersion" v:val="VT0(15):26"/>
				<v:ud v:nameU="SubType" v:prompt="" v:val="VT0(3):26"/>
				<v:ud v:nameU="Margin" v:prompt="" v:val="VT0(0.05468751186187):1"/>
			</v:userDefs>
			<title>Logic gate 2.19</title>
			<g id="shape20-26" v:mID="20" v:groupContext="shape" v:layerMember="0" transform="translate(0,-3.9375)">
				<title>Sheet.20</title>
				<path d="M0 222.09 L15.75 222.09" class="st1"/>
				<path d="M0 229.97 L15.75 229.97" class="st1"/>
				<path d="M31.5 226.03 L15.75 226.03" class="st1"/>
			</g>
			<g id="shape21-31" v:mID="21" v:groupContext="shape" v:layerMember="0" transform="translate(5.5125,0)">
				<title>Sheet.21</title>
				<v:userDefs>
					<v:ud v:nameU="X" v:val="VT0(0.03125):0"/>
					<v:ud v:nameU="X" v:prompt="" v:val="VT0(0.027343755930935):1"/>
				</v:userDefs>
				<path d="M20.48 222.09 A21.2079 12.9933 0 0 1 6.14 229.97 L0 229.97 A30.3858 18.6163 -180 0 0 0 214.22 L6.14 214.22
							 A20.9239 12.8193 0 0 1 20.48 222.09 Z" class="st2"/>
			</g>
			<g id="shape22-33" v:mID="22" v:groupContext="shape" v:layerMember="0" transform="translate(0,1.96875)">
				<title>Sheet.22</title>
			</g>
			<g id="shape23-35" v:mID="23" v:groupContext="shape" v:layerMember="0" transform="translate(21.3276,-1.97892)">
				<title>Sheet.23</title>
				<path d="M6.96 224.07 A1.17922 1.17922 -180 0 0 4.6 224.07 A1.17922 1.17922 -180 1 0 6.96 224.07 Z" class="st2"/>
			</g>
			<g id="shape24-37" v:mID="24" v:groupContext="shape" v:layerMember="0" transform="translate(5.5125,0)">
				<title>Sheet.24</title>
				<path d="M12.6 229.97 L0 229.97 L0 214.22 L12.6 214.22 A7.875 7.875 0 0 1 12.6 229.97 Z" class="st2"/>
			</g>
		</g>
		<g id="group25-39" transform="translate(-133.469,196.138) rotate(-90)" v:mID="25" v:groupContext="group" v:layerMember="0">
			<v:custProps>
				<v:cp v:nameU="Input" v:lbl="No. of Inputs" v:type="1" v:format="2;3;4;5" v:sortKey="2" v:langID="1033"
						v:val="VT4(2)"/>
				<v:cp v:nameU="Type" v:lbl="Gate Type" v:type="1" v:format="OR;AND;NOR;NAND;XOR;XNOR" v:sortKey="1" v:langID="1033"
						v:val="VT4(AND)"/>
				<v:cp v:nameU="Out" v:lbl="No. of Outputs" v:type="1" v:format="1;2;3" v:sortKey="3" v:langID="1033" v:val="VT4(1)"/>
				<v:cp v:nameU="Type" v:lbl="" v:prompt="" v:type="0" v:format="" v:sortKey="" v:invis="false" v:ask="false"
						v:langID="0" v:cal="0" v:val="VT4(NAND)"/>
			</v:custProps>
			<v:userDefs>
				<v:ud v:nameU="SubType" v:val="VT0(1):26"/>
				<v:ud v:nameU="Margin" v:val="VT0(0.0625):0"/>
				<v:ud v:nameU="LimitHeight" v:val="VT0(0):26"/>
				<v:ud v:nameU="visDescription" v:val="VT4(Represents various forms of logic gates.)"/>
				<v:ud v:nameU="visVersion" v:val="VT0(15):26"/>
				<v:ud v:nameU="SubType" v:prompt="" v:val="VT0(3):26"/>
				<v:ud v:nameU="Margin" v:prompt="" v:val="VT0(0.05468751186187):1"/>
			</v:userDefs>
			<title>Logic gate 2.25</title>
			<g id="shape26-40" v:mID="26" v:groupContext="shape" v:layerMember="0" transform="translate(0,-3.9375)">
				<title>Sheet.26</title>
				<path d="M0 222.09 L15.75 222.09" class="st1"/>
				<path d="M0 229.97 L15.75 229.97" class="st1"/>
				<path d="M31.5 226.03 L15.75 226.03" class="st1"/>
			</g>
			<g id="shape27-45" v:mID="27" v:groupContext="shape" v:layerMember="0" transform="translate(5.5125,0)">
				<title>Sheet.27</title>
				<v:userDefs>
					<v:ud v:nameU="X" v:val="VT0(0.03125):0"/>
					<v:ud v:nameU="X" v:prompt="" v:val="VT0(0.027343755930935):1"/>
				</v:userDefs>
				<path d="M20.48 222.09 A21.2079 12.9933 0 0 1 6.14 229.97 L0 229.97 A30.3858 18.6163 -180 0 0 0 214.22 L6.14 214.22
							 A20.9239 12.8193 0 0 1 20.48 222.09 Z" class="st2"/>
			</g>
			<g id="shape28-47" v:mID="28" v:groupContext="shape" v:layerMember="0" transform="translate(0,1.96875)">
				<title>Sheet.28</title>
			</g>
			<g id="shape29-49" v:mID="29" v:groupContext="shape" v:layerMember="0" transform="translate(21.3276,-1.97892)">
				<title>Sheet.29</title>
				<path d="M6.96 224.07 A1.17922 1.17922 -180 0 0 4.6 224.07 A1.17922 1.17922 -180 1 0 6.96 224.07 Z" class="st2"/>
			</g>
			<g id="shape30-51" v:mID="30" v:groupContext="shape" v:layerMember="0" transform="translate(5.5125,0)">
				<title>Sheet.30</title>
				<path d="M12.6 229.97 L0 229.97 L0 214.22 L12.6 214.22 A7.875 7.875 0 0 1 12.6 229.97 Z" class="st2"/>
			</g>
		</g>
		<g id="group31-53" transform="translate(-185.219,184.888) rotate(-90)" v:mID="31" v:groupContext="group" v:layerMember="0">
			<v:userDefs>
				<v:ud v:nameU="Form" v:val="VT0(0):26"/>
				<v:ud v:nameU="visDescription" v:val="VT4(Represents an inverter.)"/>
				<v:ud v:nameU="visVersion" v:val="VT0(15):26"/>
			</v:userDefs>
			<title>Inverter.31</title>
			<g id="shape32-54" v:mID="32" v:groupContext="shape" v:layerMember="0"
					transform="translate(162.108,54.4969) rotate(45)">
				<title>Sheet.32</title>
			</g>
			<g id="shape33-56" v:mID="33" v:groupContext="shape" v:layerMember="0">
				<title>Sheet.33</title>
				<desc>1</desc>
				<v:textBlock v:margins="rect(1,1,1,1)"/>
				<v:textRect cx="6.75" cy="219.844" width="6.41" height="9.20349"/>
				<path d="M13.5 223.22 A1.0125 1.0125 -180 1 0 15.53 223.22 A1.0125 1.0125 -180 0 0 13.5 223.22 ZM0 216.47 L13.5 223.22
							 L0 229.97 L0 216.47 Z" class="st2"/>
			</g>
		</g>
		<g id="shape36-58" v:mID="36" v:groupContext="shape" v:layerMember="1" transform="translate(79.625,-157.581)">
			<title>Dynamic connector</title>
			<path d="M9 227.72 L9 214.22" class="st3"/>
		</g>
		<g id="shape39-61" v:mID="39" v:groupContext="shape" v:layerMember="1" transform="translate(61.625,-110.331)">
			<title>Dynamic connector.39</title>
			<path d="M0 229.97 L0 223.22 L23.06 223.22 L23.06 211.97" class="st4"/>
		</g>
		<g id="shape40-64" v:mID="40" v:groupContext="shape" v:layerMember="1" transform="translate(116.75,-102.344)">
			<title>Dynamic connector.40</title>
			<path d="M0 229.97 L0 217.48 L-24.19 217.48 L-24.19 203.98" class="st4"/>
		</g>
		<g id="shape41-67" v:mID="41" v:groupContext="shape" v:layerMember="1" transform="translate(57.6875,-78.8313)">
			<title>Dynamic connector.41</title>
			<path d="M0 229.97 L0 236.72 L-19.69 236.72 L-19.69 249.21" class="st4"/>
		</g>
		<g id="shape42-70" v:mID="42" v:groupContext="shape" v:layerMember="1" transform="translate(65.5625,-81.0813)">
			<title>Dynamic connector.42</title>
			<path d="M0 232.22 L0 238.97 L23.06 238.97 L23.06 245.72" class="st4"/>
		</g>
		<g id="shape75-73" v:mID="75" v:groupContext="shape" v:layerMember="1" transform="translate(75.9688,-36.0812)">
			<title>Dynamic connector.75</title>
			<path d="M8.72 232.22 L8.72 245.72 L9.28 245.72" class="st4"/>
		</g>
		<g id="shape76-76" v:mID="76" v:groupContext="shape" v:layerMember="1" transform="translate(83.8438,-36.0812)">
			<title>Dynamic connector.76</title>
			<path d="M8.72 232.22 L8.72 245.72 L9.28 245.72" class="st4"/>
		</g>
		<g id="shape77-79" v:mID="77" v:groupContext="shape" v:layerMember="1" transform="translate(47,-45.0813)">
			<title>Dynamic connector.77</title>
			<path d="M-9 229.97 L-9 253.59" class="st4"/>
		</g>
		<g id="shape78-82" v:mID="78" v:groupContext="shape" v:layerMember="1" transform="translate(125.75,-87.8313)">
			<title>Dynamic connector.78</title>
			<path d="M-9 229.97 L-9 253.59" class="st4"/>
		</g>
		<g id="shape79-85" v:mID="79" v:groupContext="shape" v:layerMember="1" transform="translate(97.625,-211.469)">
			<title>Dynamic connector.79</title>
			<path d="M-9 229.97 L-9 253.59" class="st4"/>
		</g>
	</g>
</svg>
